<svg width="48" height="48" viewBox="0 0 48 48" fill="none" xmlns="http://www.w3.org/2000/svg">
<g clip-path="url(#clip0)">
<path d="M28.5943 23.3757L23.5829 18.3644L18.5716 23.3757L23.5829 28.3871L28.5943 23.3757Z" fill="#ECBA1E"/>
<path d="M12.1777 23.3761L7.16638 18.3647L2.15504 23.3761L7.16638 28.3874L12.1777 23.3761Z" fill="#ECBA1E"/>
<path d="M44.9057 23.3754L39.8943 18.364L34.883 23.3754L39.8943 28.3867L44.9057 23.3754Z" fill="#ECBA1E"/>
<path d="M36.7047 15.1733L23.53 2L18.5189 7.01115L10.4618 15.0682L15.473 20.0793L23.53 12.0223L31.6935 20.1844L36.7047 15.1733Z" fill="#ECBA1E"/>
<path d="M36.7047 31.8567L23.53 45.03L18.5189 40.0188L10.4618 31.9618L15.473 26.9507L23.53 35.0077L31.6935 26.8456L36.7047 31.8567Z" fill="#ECBA1E"/>
</g>
<defs>
<clipPath id="clip0">
<rect width="42.7503" height="43.03" fill="white" transform="translate(2.15488 2)"/>
</clipPath>
</defs>
</svg>
