<svg xmlns="http://www.w3.org/2000/svg" xmlns:xlink="http://www.w3.org/1999/xlink" width="31.129" height="55.352" viewBox="0 0 31.129 55.352">
  <defs>
    <linearGradient id="linear-gradient" x1="0.5" x2="0.5" y2="1" gradientUnits="objectBoundingBox">
      <stop offset="0" stop-color="#94fb08"/>
      <stop offset="1" stop-color="#18d349"/>
    </linearGradient>
  </defs>
  <path id="dollar-sign-solid" d="M22.649,25.233,10.973,21.816a3.189,3.189,0,0,1,.9-6.249h7.168a6.6,6.6,0,0,1,3.7,1.135,1.685,1.685,0,0,0,2.108-.216l3.762-3.676a1.752,1.752,0,0,0-.195-2.649A15.287,15.287,0,0,0,19.06,6.919V1.73A1.735,1.735,0,0,0,17.33,0h-3.46a1.735,1.735,0,0,0-1.73,1.73V6.919h-.27A11.845,11.845,0,0,0,.087,19.849a12.376,12.376,0,0,0,9.06,10.443l11.081,3.243a3.189,3.189,0,0,1-.9,6.249H12.162a6.6,6.6,0,0,1-3.7-1.135,1.685,1.685,0,0,0-2.108.216L2.595,42.541a1.752,1.752,0,0,0,.195,2.649,15.287,15.287,0,0,0,9.351,3.243v5.189a1.735,1.735,0,0,0,1.73,1.73h3.46a1.735,1.735,0,0,0,1.73-1.73V48.411a12.212,12.212,0,0,0,11.427-7.86,11.871,11.871,0,0,0-7.838-15.319Z" transform="translate(-0.036)" fill="url(#linear-gradient)"/>
</svg>
