<svg width="105" height="32" viewBox="0 0 105 32" fill="none" xmlns="http://www.w3.org/2000/svg">
<rect x="0.25" y="0.25" width="104.5" height="31.5" rx="7.75" stroke="#6A748E" stroke-width="0.5"/>
<path d="M50.7551 10.72V11.904H45.8271V15.808H50.0031V16.944H45.8271V22H44.3711V10.72H50.7551ZM52.2245 10.64C52.2245 10.3733 52.3152 10.16 52.4965 10C52.6778 9.82933 52.9178 9.744 53.2165 9.744C53.5152 9.744 53.7552 9.82933 53.9365 10C54.1178 10.16 54.2085 10.3733 54.2085 10.64C54.2085 10.9067 54.1178 11.1253 53.9365 11.296C53.7552 11.456 53.5152 11.536 53.2165 11.536C52.9178 11.536 52.6778 11.456 52.4965 11.296C52.3152 11.1253 52.2245 10.9067 52.2245 10.64ZM53.9365 13.216V22H52.4805V13.216H53.9365ZM57.7334 10.16V22H56.2774V10.16H57.7334ZM64.2663 20.72V22H63.1783C62.2823 22 61.6103 21.7867 61.1623 21.36C60.7249 20.9333 60.5063 20.2187 60.5063 19.216V14.48H59.1943V13.216H60.5063V11.024H61.9783V13.216H64.2503V14.48H61.9783V19.248C61.9783 19.8133 62.0796 20.2027 62.2823 20.416C62.4956 20.6187 62.8583 20.72 63.3703 20.72H64.2663ZM74.123 17.12C74.123 17.4293 74.1017 17.696 74.059 17.92H67.035C67.067 18.9227 67.3497 19.6747 67.883 20.176C68.427 20.6773 69.0883 20.928 69.867 20.928C70.571 20.928 71.1577 20.752 71.627 20.4C72.107 20.0373 72.4003 19.5573 72.507 18.96H74.059C73.9523 19.568 73.7123 20.112 73.339 20.592C72.9763 21.072 72.5017 21.4453 71.915 21.712C71.3283 21.9787 70.667 22.112 69.931 22.112C69.0883 22.112 68.3417 21.9307 67.691 21.568C67.0403 21.2053 66.5283 20.688 66.155 20.016C65.7923 19.3333 65.611 18.5333 65.611 17.616C65.611 16.6987 65.7923 15.8987 66.155 15.216C66.5283 14.5333 67.0403 14.0107 67.691 13.648C68.3417 13.2853 69.0883 13.104 69.931 13.104C70.7843 13.104 71.5257 13.2853 72.155 13.648C72.795 14.0107 73.2803 14.496 73.611 15.104C73.9523 15.712 74.123 16.384 74.123 17.12ZM72.651 17.216C72.683 16.5653 72.5763 16.0213 72.331 15.584C72.0857 15.1467 71.7497 14.8213 71.323 14.608C70.8963 14.3947 70.4323 14.288 69.931 14.288C69.131 14.288 68.459 14.5387 67.915 15.04C67.371 15.5307 67.0777 16.256 67.035 17.216H72.651ZM77.4834 14.992C77.7714 14.384 78.1927 13.9147 78.7474 13.584C79.302 13.2427 79.9634 13.072 80.7314 13.072V14.656H80.2834C79.462 14.656 78.79 14.8693 78.2674 15.296C77.7447 15.712 77.4834 16.4053 77.4834 17.376V22H76.0274V13.216H77.4834V14.992Z" fill="white"/>
<path fill-rule="evenodd" clip-rule="evenodd" d="M21.7324 9H25C25.5523 9 26 9.44772 26 10C26 10.5523 25.5523 11 25 11H21.7324C21.3866 11.5978 20.7403 12 20 12C19.2597 12 18.6134 11.5978 18.2676 11H11C10.4477 11 10 10.5523 10 10C10 9.44772 10.4477 9 11 9H18.2676C18.6134 8.4022 19.2597 8 20 8C20.7403 8 21.3866 8.4022 21.7324 9Z" fill="white"/>
<path fill-rule="evenodd" clip-rule="evenodd" d="M15.7324 15H25C25.5523 15 26 15.4477 26 16C26 16.5523 25.5523 17 25 17H15.7324C15.3866 17.5978 14.7403 18 14 18C13.2597 18 12.6134 17.5978 12.2676 17H11C10.4477 17 10 16.5523 10 16C10 15.4477 10.4477 15 11 15H12.2676C12.6134 14.4022 13.2597 14 14 14C14.7403 14 15.3866 14.4022 15.7324 15Z" fill="white"/>
<path fill-rule="evenodd" clip-rule="evenodd" d="M21.7324 21H25C25.5523 21 26 21.4477 26 22C26 22.5523 25.5523 23 25 23H21.7324C21.3866 23.5978 20.7403 24 20 24C19.2597 24 18.6134 23.5978 18.2676 23H11C10.4477 23 10 22.5523 10 22C10 21.4477 10.4477 21 11 21H18.2676C18.6134 20.4022 19.2597 20 20 20C20.7403 20 21.3866 20.4022 21.7324 21Z" fill="white"/>
</svg>
