<svg width="29" height="30" viewBox="0 0 29 30" fill="none" xmlns="http://www.w3.org/2000/svg">
<path d="M27.1279 12.7375L27.1278 12.7374C26.9235 12.2441 26.442 11.9224 25.9081 11.9224H17.7819L19.3052 2.02111L19.3052 2.02109C19.392 1.45681 19.1062 0.900705 18.5971 0.642633L18.371 1.08862L18.5971 0.642633C18.0876 0.384436 17.4702 0.483166 17.0666 0.886772L2.12965 15.8237L2.48321 16.1772L2.12965 15.8237C1.75203 16.2013 1.63913 16.7692 1.8434 17.2625L1.84343 17.2626C2.0478 17.7559 2.52923 18.0776 3.06322 18.0776H11.1893L9.66605 27.9789L9.66605 27.9789C9.57926 28.5432 9.86497 29.0993 10.3742 29.3574C10.8836 29.6156 11.501 29.5168 11.9046 29.1132L26.8416 14.1763C27.2192 13.7987 27.3322 13.2309 27.1279 12.7375Z" fill="#8CD6FF" stroke="#141647"/>
</svg>
